<svg xmlns="http://www.w3.org/2000/svg" xml:space="preserve" width="1000px" height="911px" x="0px" y="0px" viewBox="0 0 1000 911"><path fill="#EEF" d="M365.932 637.43h269.785v269.785H365.932z"/><path fill="#45A" d="M640.213 911.711H361.435V632.934h278.778v278.777zm-269.785-8.992H631.22V641.926H370.428v260.793z"/><path fill="#FEE" d="M635.717 277.717h359.712v359.712H635.717z"/><path fill="#E43" d="M999.926 641.926H631.22V273.221h368.706v368.705zm-359.713-8.992h350.72v-350.72h-350.72v350.72z"/><path fill="#FEF" d="M365.932 637.43 6.22 367.645 276.004 7.932l359.713 269.785z"/><path fill="#95A" d="M366.833 643.729-.075 368.547 275.102 1.639l366.914 275.177-275.183 366.913zM12.513 366.744 365.03 631.131l264.386-352.512L276.905 14.227 12.513 366.744z"/><path d="M508.271 721.563c-2.752 2.377-5.398 4.109-7.951 5.21-2.541 1.089-5.269 1.64-8.161 1.64-4.309 0-7.775-1.265-10.41-3.794s-3.952-5.784-3.952-9.73c0-2.611.591-4.906 1.78-6.921a13.96 13.96 0 0 1 4.719-4.824c1.961-1.217 4.362-2.084 7.202-2.611 1.786-.351 5.175-.632 10.169-.83 4.988-.211 8.56-.738 10.726-1.594.621-2.154.926-3.957.926-5.397 0-1.839-.668-3.29-2.015-4.345-1.851-1.463-4.543-2.201-8.079-2.201-3.337 0-6.072.75-8.191 2.225-2.125 1.477-3.671 3.584-4.631 6.301l-8.038-.703c1.639-4.625 4.239-8.174 7.792-10.633 3.56-2.458 8.044-3.676 13.455-3.676 5.771 0 10.339 1.369 13.699 4.121 2.576 2.049 3.864 4.707 3.864 7.986 0 2.494-.362 5.387-1.089 8.653l-2.588 11.593c-.832 3.688-1.241 6.686-1.241 9.004 0 1.463.328 3.571.972 6.322h-8.032c-.446-1.523-.75-3.455-.926-5.796zm2.939-17.834a18.832 18.832 0 0 1-3.571 1.019c-1.276.234-3.407.48-6.393.737-4.626.422-7.893.938-9.79 1.57-1.909.632-3.337 1.627-4.309 2.997-.96 1.382-1.446 2.903-1.446 4.566 0 2.226.767 4.063 2.307 5.491 1.534 1.441 3.724 2.155 6.563 2.155 2.634 0 5.164-.69 7.599-2.085 2.424-1.393 4.345-3.336 5.75-5.818 1.404-2.482 2.506-6.031 3.29-10.632zM683.666 493.545l13.431-64.373h7.95l-4.789 23.009c2.518-2.313 4.801-3.946 6.862-4.895a14.942 14.942 0 0 1 6.405-1.429c4.355 0 7.997 1.622 10.913 4.877 2.915 3.244 4.367 7.974 4.367 14.181 0 4.133-.585 7.903-1.757 11.322-1.17 3.432-2.622 6.3-4.344 8.642-1.732 2.318-3.513 4.181-5.363 5.573-1.838 1.383-3.734 2.424-5.655 3.115-1.943.68-3.794 1.03-5.585 1.03-3.068 0-5.785-.819-8.115-2.436-2.354-1.628-4.18-4.11-5.491-7.447l-1.851 8.829h-6.978zm11.768-19.145-.047 1.486c0 3.981.949 7.025 2.857 9.099 1.896 2.073 4.273 3.114 7.119 3.114 2.775 0 5.328-.971 7.658-2.915s4.238-4.988 5.727-9.11c1.498-4.133 2.236-7.938 2.236-11.428 0-3.911-.938-6.955-2.822-9.134-1.896-2.16-4.227-3.243-7.014-3.243-2.869 0-5.504 1.106-7.893 3.313-2.412 2.214-4.414 5.62-6.019 10.21-1.205 3.421-1.802 6.302-1.802 8.608zM446.071 440.583l7.945.831c-1.991 5.826-4.824 10.152-8.495 12.974-3.677 2.834-7.857 4.238-12.541 4.238-5.064 0-9.168-1.639-12.312-4.917-3.15-3.278-4.725-7.857-4.725-13.747 0-5.094 1.013-10.094 3.033-15.012 2.02-4.918 4.912-8.659 8.671-11.223 3.765-2.559 8.062-3.841 12.886-3.841 5.012 0 8.975 1.411 11.903 4.239 2.927 2.822 4.391 6.563 4.391 11.218l-7.816.527c-.029-2.957-.884-5.27-2.57-6.938-1.68-1.668-3.899-2.506-6.651-2.506-3.191 0-5.96 1.013-8.296 3.033-2.348 2.02-4.18 5.088-5.515 9.198-1.329 4.116-1.997 8.074-1.997 11.879 0 3.981.878 6.967 2.635 8.958s3.922 2.986 6.499 2.986 5.041-.978 7.4-2.939c2.352-1.961 4.202-4.947 5.555-8.958zM635.717 641.926H365.932l-3.595-7.189 269.784-359.718 8.092 2.699V637.43l-4.496 4.496zm-260.793-8.992H631.22V291.207L374.924 632.934z"/></svg>