<svg xmlns="http://www.w3.org/2000/svg" xml:space="preserve" x="0px" y="0px" style="enable-background:new 0 0 691.111145 691.111084" viewBox="0 0 691.111145 691.111084"><path d="M0 345.556h677.252" style="fill:none;stroke:#231815;stroke-width:1.7;stroke-miterlimit:10"/><path d="m674.2 345.556-3.725-6.126.21-.138 9.987 3.967c3.48.765 6.96 1.53 10.44 2.297l-10.44 2.296-9.987 3.967-.21-.104 3.726-6.16z" style="fill:#231815"/><path d="M345.556 691.111V13.86" style="fill:none;stroke:#231815;stroke-width:1.7;stroke-miterlimit:10"/><path d="m345.556 16.91-6.126 3.726-.138-.21 3.967-9.987c.765-3.48 1.53-6.96 2.297-10.439l2.296 10.44 3.967 9.987-.104.209-6.16-3.726z" style="fill:#231815"/><circle cx="345.5555725" cy="345.555542" r="254.4444427" style="fill:none;stroke:#231815;stroke-width:5;stroke-miterlimit:10"/><path d="M345.556 345.556 189.946 144.25" style="fill:none;stroke:#231815;stroke-width:1.7;stroke-miterlimit:10"/><path d="M687.002 368.276c-.85 0-1.531-.554-1.531-1.276s.256-1.573.808-1.573c.298-.552.169-1.316-1.191-1.316s-4.08 2.593-5.948 8.074c-1.87 5.525-2.212 9.434.765 9.434 2.678 0 5.014-2.974 5.95-4.463l.976.808c-.891 1.785-4.036 5.566-6.756 5.566s-4.42-1.699-4.42-4.333c-1.019 1.911-3.951 4.292-6.927 4.25-2.295 0-3.655-1.616-3.655-3.23 0-1.784.552-2.634 1.829-2.634 1.316 0 1.953.85 1.953 1.655 0 .852-.34 1.702-1.104 1.785-.298 1.702 4.121.894 5.694-2.039 1.572-3.017 3.483-10.2 3.698-11.643.213-1.445-1.318-3.315-2.636-3.315-1.997 0-3.91 2.678-4.759 3.528l-.808-.935c1.402-1.36 3.189-4.207 5.823-4.207 2.593 0 4.333 2.974 4.165 4.885 1.23-1.316 3.61-4.885 6.67-4.885 2.976 0 3.57 2.803 3.357 4.163s-1.062 1.701-1.953 1.701zM199.941 368.276c-.85 0-1.53-.554-1.53-1.276s.256-1.573.807-1.573c.298-.552.169-1.316-1.19-1.316s-4.08 2.593-5.948 8.074c-1.87 5.525-2.212 9.434.764 9.434 2.678 0 5.015-2.974 5.95-4.463l.976.808c-.89 1.785-4.035 5.566-6.755 5.566s-4.422-1.699-4.422-4.333c-1.018 1.911-3.95 4.292-6.926 4.25-2.295 0-3.655-1.616-3.655-3.23 0-1.784.552-2.634 1.829-2.634 1.316 0 1.953.85 1.953 1.655 0 .852-.34 1.702-1.103 1.785-.298 1.702 4.12.894 5.693-2.039 1.572-3.017 3.484-10.2 3.699-11.643.212-1.445-1.319-3.315-2.637-3.315-1.997 0-3.909 2.678-4.758 3.528l-.808-.935c1.401-1.36 3.188-4.207 5.822-4.207 2.593 0 4.334 2.974 4.165 4.885 1.23-1.316 3.611-4.885 6.67-4.885 2.976 0 3.57 2.803 3.357 4.163s-1.062 1.701-1.953 1.701zM326.018 383.914c-8.67 0-14.746-7.395-14.746-15.894 0-8.542 5.864-16.87 14.448-16.87 8.71 0 14.534 7.988 14.534 16.616 0 8.372-5.61 16.148-14.236 16.148zm.127-31.363c-6.885 0-10.283 6.758-10.283 15.298 0 8.245 3.356 14.663 10.156 14.663 5.779 0 9.773-6.418 9.773-15.088 0-8.286-2.761-14.873-9.646-14.873zM627.868 382.595h-15.341v-1.103c6.289 0 5.95-1.658 5.95-2.679v-19.206c0-1.53-.638-1.743-5.992-1.743v-.894c4.59-.51 9.221-2.72 9.221-2.72V378.9c0 .893-.127 2.634 6.162 2.634v1.062zM373.423 78.306H358.08v-1.104c6.289 0 5.95-1.658 5.95-2.678V55.317c0-1.53-.638-1.743-5.992-1.743v-.893c4.59-.51 9.221-2.72 9.221-2.72v24.648c0 .894-.126 2.635 6.163 2.635v1.062zM171.13 129.348h-5.354v10.88c0 1.571 1.912 2.25 5.354 2.25v1.404h-13.896v-1.404c3.486 0 4.633-1.062 4.633-2.25v-23.331c0-2.507-1.318-3.357-4.802-3.357v-1.404h15.977c3.147 0 10.37 1.785 10.37 8.926 0 5.44-5.949 8.286-12.282 8.286zm-.085-15.979c-3.1 0-5.269.51-5.269 2.932v11.773h5.567c5.439 0 7.607-3.443 7.607-7.268 0-4.59-2.678-7.437-7.905-7.437zM385.854 315.571c-5.95-1.743-3.908-10.752-1.657-17.253 2.38-6.926 7.778-15.044 13.43-13.215 3.61 1.189 4.292 8.073 2.59 14.023-3.909 13.896-9.944 17.678-14.363 16.445zm1.19-15.64c-.042 0-1.148 3.275-1.912 6.08-.85 3.186-.935 7.69 1.486 8.286 3.57.891 6.504-4.165 7.862-7.861 1.064-2.806 2.466-6.504 2.38-6.504h-9.817zm9.477-13.17c-2.932-.555-4.632 2.76-6.29 5.224-1.36 2-2.931 6.46-2.89 6.46h9.775c.042 0 .977-3.994 1.19-6.077.468-4.46-.596-5.395-1.785-5.608zM337.35 1.194s-6.161 16.02-6.842 17.932c-.68 1.785-3.399 8.542-9.561 8.542-4.93 0-5.183-2.082-5.183-3.23 0-1.274 1.018-1.743 1.614-1.743.551 0 1.657.767 1.657 1.573 0 .935-.383 1.191-.68 1.445.085.893 2.126.893 3.486.893 3.186 0 6.289-7.522 6.799-9.265-1.318 1.446-3.018 2.466-5.357 2.466-2.336 0-5.734-1.02-3.61-5.652 2.124-4.675 3.315-7.778 3.74-8.882.425-1.147.041-3.315-1.49-1.699-1.572 1.7-3.483 3.738-3.483 3.738l-.723-.977c.894-1.062 3.782-5.141 6.12-5.141 1.741 0 2.762 1.997 2.125 3.696l-3.91 10.496c-1.19 3.23 3.656 4.887 6.417.298s5.652-14.49 5.652-14.49h3.23zM377.231 132.5s-6.162 16.02-6.843 17.932c-.679 1.785-3.399 8.543-9.56 8.543-4.93 0-5.184-2.083-5.184-3.23 0-1.275 1.018-1.744 1.614-1.744.552 0 1.658.767 1.658 1.573 0 .935-.384 1.191-.681 1.445.085.894 2.126.894 3.486.894 3.186 0 6.289-7.522 6.8-9.266-1.32 1.446-3.018 2.466-5.357 2.466-2.337 0-5.735-1.02-3.611-5.652 2.124-4.675 3.315-7.778 3.74-8.881.425-1.148.042-3.316-1.49-1.7a912.997 912.997 0 0 1-3.483 3.738l-.723-.976c.894-1.062 3.782-5.142 6.121-5.142 1.74 0 2.761 1.997 2.124 3.696l-3.909 10.496c-1.191 3.23 3.655 4.888 6.416.298s5.652-14.49 5.652-14.49h3.23z"/><path d="M331.543 310.914a37.254 37.254 0 0 1 14.013-2.717c20.632 0 37.358 16.726 37.358 37.359" style="fill:none;stroke:#231815;stroke-width:1.25;stroke-miterlimit:10"/><path d="m333.632 310.06.256-5.265-.183-.016-5.06 6.069c-1.98 1.716-3.96 3.432-5.938 5.149 2.516-.728 5.033-1.455 7.55-2.181l7.846-.944.098-.14-4.57-2.672z" style="fill:#231815"/><circle cx="189.9134674" cy="144.207016" r="7.7320948"/><path d="M189.947 144.25h2.5" style="fill:none;stroke:#231815;stroke-width:1.25;stroke-miterlimit:10"/><path d="M194.916 144.25H341.82" style="fill:none;stroke:#231815;stroke-width:1.25;stroke-miterlimit:10;stroke-dasharray:4.9379888,2.4689944"/><path d="M343.056 144.25h2.5" style="fill:none;stroke:#231815;stroke-width:1.25;stroke-miterlimit:10"/><path d="M189.947 144.25v201.306" style="fill:none;stroke:#231815;stroke-width:1.25;stroke-miterlimit:10;stroke-dasharray:5,2.5"/></svg>